<?xml version="1.0" encoding="UTF-8"?>
<svg xmlns="http://www.w3.org/2000/svg" xmlns:xlink="http://www.w3.org/1999/xlink" width="1051px" height="688px" viewBox="0 0 1051 688" version="1.1">
<defs>
<filter id="alpha" filterUnits="objectBoundingBox" x="0%" y="0%" width="100%" height="100%">
  <feColorMatrix type="matrix" in="SourceGraphic" values="0 0 0 0 1 0 0 0 0 1 0 0 0 0 1 0 0 0 1 0"/>
</filter>
<mask id="mask0">
  <g filter="url(#alpha)">
<rect x="0" y="0" width="1051" height="688" style="fill:rgb(0%,0%,0%);fill-opacity:0.101961;stroke:none;"/>
  </g>
</mask>
<clipPath id="clip1">
  <rect x="0" y="0" width="1051" height="688"/>
</clipPath>
<g id="surface5" clip-path="url(#clip1)">
<path style=" stroke:none;fill-rule:nonzero;fill:rgb(0%,0%,0%);fill-opacity:1;" d="M 408.207031 143.929688 L 407.527344 139.007812 L 415.59375 119.308594 L 437.75 116.84375 L 442.535156 145.046875 Z M 408.207031 143.929688 "/>
</g>
<mask id="mask1">
  <g filter="url(#alpha)">
<rect x="0" y="0" width="1051" height="688" style="fill:rgb(0%,0%,0%);fill-opacity:0.101961;stroke:none;"/>
  </g>
</mask>
<clipPath id="clip2">
  <rect x="0" y="0" width="1051" height="688"/>
</clipPath>
<g id="surface8" clip-path="url(#clip2)">
<path style=" stroke:none;fill-rule:nonzero;fill:rgb(0%,0%,0%);fill-opacity:1;" d="M 158.441406 372.867188 L 144.390625 393.480469 L 176.117188 401.988281 L 176.117188 372.867188 Z M 158.441406 372.867188 "/>
</g>
</defs>
<g id="surface1">
<path style=" stroke:none;fill-rule:nonzero;fill:rgb(24.705882%,23.921569%,33.72549%);fill-opacity:1;" d="M 969.742188 332.425781 L 117.460938 332.425781 C 106.039062 332.425781 96.742188 323.128906 96.742188 311.703125 L 96.742188 20.722656 C 96.742188 9.296875 106.039062 0 117.460938 0 L 969.742188 0 C 981.164062 0 990.457031 9.296875 990.457031 20.722656 L 990.457031 311.703125 C 990.457031 323.128906 981.164062 332.425781 969.742188 332.425781 Z M 117.460938 2.46875 C 107.398438 2.46875 99.214844 10.65625 99.214844 20.722656 L 99.214844 311.703125 C 99.214844 321.765625 107.398438 329.953125 117.460938 329.953125 L 969.742188 329.953125 C 979.800781 329.953125 987.988281 321.765625 987.988281 311.703125 L 987.988281 20.722656 C 987.988281 10.65625 979.800781 2.46875 969.742188 2.46875 Z M 117.460938 2.46875 "/>
<path style=" stroke:none;fill-rule:nonzero;fill:rgb(90.196078%,90.196078%,90.196078%);fill-opacity:1;" d="M 0 680.042969 L 1051.042969 680.042969 L 1051.042969 682.121094 L 0 682.121094 Z M 0 680.042969 "/>
<path style=" stroke:none;fill-rule:nonzero;fill:rgb(90.196078%,90.196078%,90.196078%);fill-opacity:1;" d="M 0 573.816406 L 1051.042969 573.816406 L 1051.042969 575.894531 L 0 575.894531 Z M 0 573.816406 "/>
<path style=" stroke:none;fill-rule:nonzero;fill:rgb(100%,71.372549%,71.372549%);fill-opacity:1;" d="M 478.988281 343.125 C 479.742188 352.613281 485.25 359.910156 491.285156 359.429688 C 497.320312 358.949219 501.601562 350.871094 500.84375 341.378906 C 500.59375 337.585938 499.441406 333.90625 497.476562 330.648438 L 493.773438 290.496094 L 474.96875 292.636719 L 480.617188 331.992188 C 479.195312 335.519531 478.636719 339.339844 478.988281 343.125 Z M 478.988281 343.125 "/>
<path style=" stroke:none;fill-rule:nonzero;fill:rgb(90.196078%,90.196078%,90.196078%);fill-opacity:1;" d="M 456.527344 155.796875 C 456.527344 155.796875 474.105469 146.492188 483.015625 160.398438 C 491.929688 174.304688 498.082031 324.703125 498.082031 324.703125 L 473.378906 327.34375 L 468.695312 221.359375 Z M 456.527344 155.796875 "/>
<path style=" stroke:none;fill-rule:nonzero;fill:rgb(100%,71.372549%,71.372549%);fill-opacity:1;" d="M 420.046875 565.96875 L 434.355469 565.96875 L 441.164062 510.761719 L 420.042969 510.761719 Z M 420.046875 565.96875 "/>
<path style=" stroke:none;fill-rule:nonzero;fill:rgb(18.431373%,18.039216%,25.490196%);fill-opacity:1;" d="M 469.078125 565.644531 C 469.523438 566.394531 469.757812 568.816406 469.757812 569.691406 C 469.757812 572.371094 467.582031 574.546875 464.898438 574.546875 L 420.582031 574.546875 C 418.753906 574.546875 417.269531 573.0625 417.269531 571.234375 L 417.269531 569.386719 C 417.269531 569.386719 415.074219 563.84375 419.589844 557.007812 C 419.589844 557.007812 425.199219 562.359375 433.582031 553.976562 L 436.054688 549.496094 L 453.949219 562.585938 L 463.867188 563.804688 C 466.035156 564.074219 467.960938 563.765625 469.078125 565.644531 Z M 469.078125 565.644531 "/>
<path style=" stroke:none;fill-rule:nonzero;fill:rgb(100%,71.372549%,71.372549%);fill-opacity:1;" d="M 502.859375 563.597656 L 516.726562 560.054688 L 509.660156 504.882812 L 489.195312 510.109375 Z M 502.859375 563.597656 "/>
<path style=" stroke:none;fill-rule:nonzero;fill:rgb(18.431373%,18.039216%,25.490196%);fill-opacity:1;" d="M 550.285156 551.148438 C 550.902344 551.765625 551.730469 554.054688 551.945312 554.898438 C 552.609375 557.5 551.039062 560.144531 548.441406 560.808594 L 505.5 571.777344 C 503.730469 572.230469 501.925781 571.160156 501.472656 569.386719 L 501.015625 567.601562 C 501.015625 567.601562 497.519531 562.769531 500.199219 555.027344 C 500.199219 555.027344 506.960938 558.824219 513.007812 548.628906 L 514.292969 543.675781 L 534.871094 551.929688 L 544.78125 550.65625 C 546.949219 550.378906 548.738281 549.601562 550.285156 551.148438 Z M 550.285156 551.148438 "/>
<path style=" stroke:none;fill-rule:nonzero;fill:rgb(100%,71.372549%,71.372549%);fill-opacity:1;" d="M 408.207031 143.929688 L 407.527344 139.007812 L 415.59375 119.308594 L 437.75 116.84375 L 442.535156 145.046875 Z M 408.207031 143.929688 "/>
<use xlink:href="#surface5" mask="url(#mask0)"/>
<path style=" stroke:none;fill-rule:nonzero;fill:rgb(18.431373%,18.039216%,25.490196%);fill-opacity:1;" d="M 382.355469 283.054688 L 372.507812 310.140625 L 379.894531 324.914062 L 416.824219 539.136719 L 441.375 539.136719 L 436.519531 349.535156 L 493.144531 539.136719 L 517.445312 539.136719 L 497.90625 411.09375 L 483.296875 292.902344 L 474.4375 287.429688 L 431.597656 263.355469 Z M 382.355469 283.054688 "/>
<path style=" stroke:none;fill-rule:nonzero;fill:rgb(90.196078%,90.196078%,90.196078%);fill-opacity:1;" d="M 445.136719 301.519531 L 430.363281 303.984375 L 410.667969 257.199219 L 454.984375 257.199219 Z M 445.136719 301.519531 "/>
<path style=" stroke:none;fill-rule:nonzero;fill:rgb(18.431373%,18.039216%,25.490196%);fill-opacity:1;" d="M 474.679688 289.207031 L 445.136719 301.519531 L 435.289062 279.359375 L 430.363281 303.984375 L 378.664062 287.335938 L 386.050781 257.199219 L 378.664062 158.703125 L 404.734375 141.320312 L 408.207031 139.007812 L 440.214844 141.46875 L 443.019531 142.996094 L 462.371094 153.78125 L 467.296875 235.039062 Z M 474.679688 289.207031 "/>
<path style=" stroke:none;fill-rule:nonzero;fill:rgb(90.196078%,90.196078%,90.196078%);fill-opacity:1;" d="M 443.019531 142.996094 L 429.132812 201.796875 L 404.734375 141.320312 L 408.207031 139.007812 L 440.214844 141.46875 Z M 443.019531 142.996094 "/>
<path style=" stroke:none;fill-rule:nonzero;fill:rgb(18.431373%,18.039216%,25.490196%);fill-opacity:1;" d="M 419.285156 139.007812 L 414.363281 147.488281 L 419.285156 150.3125 L 416.824219 201.949219 L 426.671875 215.339844 L 436.519531 195.546875 L 429.132812 150.3125 L 431.597656 139.007812 Z M 419.285156 139.007812 "/>
<path style=" stroke:none;fill-rule:nonzero;fill:rgb(100%,71.372549%,71.372549%);fill-opacity:1;" d="M 450.0625 110.6875 C 450.0625 123.609375 439.589844 134.082031 426.671875 134.082031 C 413.753906 134.082031 403.28125 123.609375 403.28125 110.6875 C 403.28125 97.769531 413.753906 87.296875 426.671875 87.296875 C 439.589844 87.296875 450.0625 97.769531 450.0625 110.6875 Z M 450.0625 110.6875 "/>
<path style=" stroke:none;fill-rule:nonzero;fill:rgb(18.431373%,18.039216%,25.490196%);fill-opacity:1;" d="M 411.726562 112.742188 L 416.777344 114.945312 L 418.984375 101.710938 C 418.984375 101.710938 427.804688 97.300781 434.421875 99.503906 C 441.039062 101.710938 452.066406 99.503906 452.066406 99.503906 C 452.066406 99.503906 452.066406 77.449219 436.628906 77.449219 C 421.191406 77.449219 405.75 79.652344 405.75 86.269531 C 405.75 92.886719 399.132812 99.503906 399.132812 99.503906 C 399.132812 99.503906 390.3125 112.742188 399.132812 121.5625 C 407.957031 130.386719 412.367188 130.386719 412.367188 130.386719 Z M 411.726562 112.742188 "/>
<path style=" stroke:none;fill-rule:nonzero;fill:rgb(100%,71.372549%,71.372549%);fill-opacity:1;" d="M 366.339844 342.433594 C 366.085938 351.945312 370.785156 359.789062 376.839844 359.953125 C 382.890625 360.113281 388.003906 352.535156 388.257812 343.019531 C 388.414062 339.21875 387.65625 335.4375 386.050781 331.992188 L 386.625 291.671875 L 367.703125 291.804688 L 369.144531 331.535156 C 367.351562 334.894531 366.390625 338.628906 366.339844 342.433594 Z M 366.339844 342.433594 "/>
<path style=" stroke:none;fill-rule:nonzero;fill:rgb(90.196078%,90.196078%,90.196078%);fill-opacity:1;" d="M 389.753906 153.734375 C 389.753906 153.734375 373.75 148.808594 366.363281 163.582031 C 358.980469 178.355469 368.828125 328.558594 368.828125 328.558594 L 393.671875 328.558594 L 387.078125 222.679688 Z M 389.753906 153.734375 "/>
<path style=" stroke:none;fill-rule:nonzero;fill:rgb(24.705882%,23.921569%,33.72549%);fill-opacity:1;" d="M 1003.644531 433.5625 L 943.96875 415.289062 C 942.648438 414.886719 941.261719 414.738281 939.886719 414.855469 L 637.429688 440.601562 C 633.117188 440.96875 632.03125 446.785156 635.921875 448.679688 L 645.613281 453.402344 L 645.355469 453.402344 L 645.355469 679.378906 L 654.484375 679.378906 L 654.484375 457.722656 L 684.847656 472.519531 C 687.167969 473.648438 689.761719 474.113281 692.332031 473.851562 L 695.5625 473.527344 L 695.5625 679.378906 L 704.695312 679.378906 L 704.695312 472.605469 L 938.628906 448.96875 L 938.628906 679.378906 L 947.757812 679.378906 L 947.757812 448.046875 L 986.558594 444.128906 L 986.558594 679.378906 L 995.6875 679.378906 L 995.6875 443.207031 L 1002.765625 442.492188 C 1007.734375 441.988281 1008.421875 435.023438 1003.644531 433.5625 Z M 1003.644531 433.5625 "/>
<path style=" stroke:none;fill-rule:nonzero;fill:rgb(100%,100%,100%);fill-opacity:1;" d="M 725.234375 439.707031 C 730.941406 439.707031 815.386719 429.433594 815.386719 429.433594 L 827.9375 446.554688 L 740.070312 463.671875 Z M 725.234375 439.707031 "/>
<path style=" stroke:none;fill-rule:nonzero;fill:rgb(62.745098%,38.039216%,41.568627%);fill-opacity:1;" d="M 817.914062 670.605469 L 803.242188 670.578125 L 796.359375 613.96875 L 818.015625 614.007812 Z M 817.914062 670.605469 "/>
<path style=" stroke:none;fill-rule:nonzero;fill:rgb(18.431373%,18.039216%,25.490196%);fill-opacity:1;" d="M 767.648438 670.183594 C 767.191406 670.953125 766.945312 673.4375 766.945312 674.332031 C 766.941406 677.082031 769.164062 679.316406 771.914062 679.320312 L 817.351562 679.398438 C 819.226562 679.402344 820.75 677.882812 820.753906 676.007812 L 820.757812 674.113281 C 820.757812 674.113281 823.015625 668.433594 818.398438 661.417969 C 818.398438 661.417969 812.636719 666.894531 804.058594 658.285156 L 801.53125 653.6875 L 783.164062 667.074219 L 772.992188 668.308594 C 770.769531 668.578125 768.796875 668.257812 767.648438 670.183594 Z M 767.648438 670.183594 "/>
<path style=" stroke:none;fill-rule:nonzero;fill:rgb(62.745098%,38.039216%,41.568627%);fill-opacity:1;" d="M 896.65625 644.28125 L 885.082031 653.011719 L 845.894531 612.515625 L 862.980469 599.625 Z M 896.65625 644.28125 "/>
<path style=" stroke:none;fill-rule:nonzero;fill:rgb(18.431373%,18.039216%,25.490196%);fill-opacity:1;" d="M 856.800781 673.9375 C 856.898438 674.816406 858.1875 676.917969 858.71875 677.625 C 860.355469 679.796875 863.441406 680.226562 865.613281 678.589844 L 901.457031 651.546875 C 902.9375 650.429688 903.230469 648.324219 902.117188 646.84375 L 900.988281 645.351562 C 900.988281 645.351562 899.378906 639.527344 891.558594 636.75 C 891.558594 636.75 890.285156 644.503906 878.390625 642.839844 L 873.660156 640.726562 L 867.171875 662.230469 L 859.894531 669.269531 C 858.300781 670.8125 856.558594 671.734375 856.800781 673.9375 Z M 856.800781 673.9375 "/>
<path style=" stroke:none;fill-rule:nonzero;fill:rgb(62.745098%,38.039216%,41.568627%);fill-opacity:1;" d="M 865.996094 351.707031 C 865.996094 365.238281 855.027344 376.207031 841.496094 376.207031 C 827.96875 376.207031 817 365.238281 817 351.707031 C 817 338.175781 827.96875 327.207031 841.496094 327.207031 C 855.027344 327.207031 865.996094 338.175781 865.996094 351.707031 Z M 865.996094 351.707031 "/>
<path style=" stroke:none;fill-rule:nonzero;fill:rgb(18.431373%,18.039216%,25.490196%);fill-opacity:1;" d="M 863.6875 492.972656 C 863.6875 492.972656 773.492188 487.867188 768.386719 498.078125 C 763.28125 508.289062 795.984375 648.566406 795.984375 648.566406 L 825.164062 642.449219 L 810.929688 544.035156 C 810.929688 544.035156 886.195312 563.96875 896.40625 540.140625 C 906.617188 516.3125 903.679688 507.4375 903.679688 507.4375 Z M 863.6875 492.972656 "/>
<path style=" stroke:none;fill-rule:nonzero;fill:rgb(18.431373%,18.039216%,25.490196%);fill-opacity:1;" d="M 886.796875 475.828125 C 886.796875 475.828125 798.460938 494.769531 796.238281 505.96875 C 794.015625 517.167969 862.660156 643.792969 862.660156 643.792969 L 889.183594 630.171875 L 849.425781 539.03125 C 849.425781 539.03125 927.28125 538.34375 930.828125 512.660156 C 934.371094 486.980469 929.191406 479.203125 929.191406 479.203125 Z M 886.796875 475.828125 "/>
<path style=" stroke:none;fill-rule:nonzero;fill:rgb(42.352941%,38.823529%,100%);fill-opacity:1;" d="M 896.871094 379.785156 L 854.433594 379.785156 L 825.394531 427.445312 C 825.394531 427.445312 818.589844 458.242188 825.394531 461.566406 C 832.203125 464.886719 832.203125 500.632812 832.203125 500.632812 L 903.679688 507.4375 C 903.679688 507.4375 913.890625 400.210938 910.484375 390 C 907.082031 379.785156 896.871094 379.785156 896.871094 379.785156 Z M 896.871094 379.785156 "/>
<path style=" stroke:none;fill-rule:nonzero;fill:rgb(62.745098%,38.039216%,41.568627%);fill-opacity:1;" d="M 829.648438 411.273438 L 825.394531 461.566406 L 777.542969 441.253906 L 766.121094 435.507812 C 763.882812 432.589844 760.980469 430.25 757.65625 428.6875 C 749.382812 424.652344 740.601562 425.652344 738.039062 430.914062 C 735.472656 436.179688 740.097656 443.710938 748.367188 447.742188 C 751.648438 449.398438 755.28125 450.242188 758.957031 450.207031 L 792.375 469.1875 L 792.414062 469.113281 L 792.5625 469.378906 L 844.964844 491.269531 L 857.023438 425.25 Z M 829.648438 411.273438 "/>
<path style=" stroke:none;fill-rule:nonzero;fill:rgb(18.431373%,18.039216%,25.490196%);fill-opacity:1;" d="M 824.546875 355.105469 C 824.546875 355.105469 799.019531 358.511719 809.230469 336.382812 C 809.230469 336.382812 807.671875 324.390625 815.257812 323.578125 C 822.84375 322.769531 833.054688 309.152344 833.054688 309.152344 C 833.054688 309.152344 856.464844 297.238281 868.585938 309.152344 C 880.703125 321.066406 916.441406 390.847656 916.441406 390.847656 L 892.617188 416.378906 C 892.617188 416.378906 878.292969 378.722656 861.628906 383.082031 C 844.964844 387.445312 829.648438 400.453125 829.648438 400.453125 C 829.648438 400.453125 812.738281 391.988281 820.34375 384.609375 C 827.949219 377.234375 824.546875 355.105469 824.546875 355.105469 Z M 824.546875 355.105469 "/>
<path style=" stroke:none;fill-rule:nonzero;fill:rgb(42.352941%,38.823529%,100%);fill-opacity:1;" d="M 858.582031 392.550781 C 858.582031 392.550781 846.667969 377.234375 838.160156 389.148438 C 829.648438 401.0625 822.84375 416.378906 822.84375 416.378906 L 856.878906 428.292969 Z M 858.582031 392.550781 "/>
<path style=" stroke:none;fill-rule:nonzero;fill:rgb(90.196078%,90.196078%,90.196078%);fill-opacity:1;" d="M 987.8125 675.992188 L 948.265625 550.289062 L 948.273438 550.285156 L 948.363281 550.285156 L 948.203125 550.082031 L 948.199219 550.078125 L 945.382812 541.125 L 945.386719 541.121094 C 949.675781 537.425781 952.597656 532.140625 953.179688 526.058594 L 935.105469 426.625 C 936.347656 413.570312 926.339844 402.15625 913.226562 401.6875 L 872.441406 401.585938 C 860.847656 401.175781 850.808594 409.550781 849.117188 421.035156 L 848.214844 427.128906 L 835.722656 512.144531 C 835.265625 515.203125 835.445312 518.214844 836.167969 521.035156 L 827.171875 522.210938 L 824.445312 522.574219 L 813.664062 523.980469 L 813.628906 523.992188 L 812.28125 524.164062 L 810.820312 524.164062 L 810.820312 560.683594 L 810.914062 560.683594 L 810.914062 677.417969 C 810.914062 678.171875 811.527344 678.789062 812.28125 678.789062 C 813.046875 678.789062 813.664062 678.171875 813.664062 677.417969 L 813.664062 560.683594 L 829.660156 560.683594 L 845.625 677.28125 C 845.730469 677.964844 846.3125 678.46875 846.996094 678.46875 C 847.050781 678.46875 847.121094 678.46875 847.179688 678.457031 C 847.929688 678.355469 848.457031 677.65625 848.355469 676.902344 L 832.445312 560.683594 L 909.210938 560.683594 C 916.832031 560.683594 923.898438 558.265625 929.648438 554.121094 L 960.085938 677.066406 C 960.242188 677.6875 960.800781 678.101562 961.414062 678.101562 C 961.527344 678.101562 961.640625 678.089844 961.753906 678.058594 C 962.492188 677.871094 962.933594 677.125 962.75 676.390625 L 932.019531 552.257812 C 932.425781 551.914062 932.835938 551.550781 933.222656 551.175781 L 945.4375 550.457031 L 985.1875 676.816406 C 985.375 677.40625 985.914062 677.78125 986.5 677.78125 C 986.636719 677.78125 986.773438 677.761719 986.914062 677.71875 C 987.636719 677.488281 988.039062 676.71875 987.8125 675.992188 Z M 942.773438 543.074219 C 942.875 543.015625 942.964844 542.949219 943.058594 542.890625 L 943.351562 543.824219 Z M 942.773438 543.074219 "/>
<path style=" stroke:none;fill-rule:nonzero;fill:rgb(100%,71.372549%,71.372549%);fill-opacity:1;" d="M 211.886719 462.917969 L 238.5 445.992188 L 249.320312 452.519531 L 211.886719 495.535156 Z M 211.886719 462.917969 "/>
<path style=" stroke:none;fill-rule:nonzero;fill:rgb(90.196078%,90.196078%,90.196078%);fill-opacity:1;" d="M 175.492188 397.398438 C 175.492188 397.398438 157.816406 401.558594 166.132812 425.480469 C 174.453125 449.398438 201.488281 499.316406 209.804688 496.195312 C 218.125 493.078125 219.164062 461.878906 219.164062 461.878906 C 219.164062 461.878906 218.125 462.917969 213.964844 458.757812 C 209.804688 454.597656 209.804688 456.496094 209.804688 451.90625 C 209.804688 447.316406 206.40625 443.914062 206.40625 443.914062 L 202.527344 435.878906 C 202.527344 435.878906 202.527344 398.441406 186.929688 396.359375 C 171.332031 394.28125 175.492188 397.398438 175.492188 397.398438 Z M 175.492188 397.398438 "/>
<path style=" stroke:none;fill-rule:nonzero;fill:rgb(100%,71.372549%,71.372549%);fill-opacity:1;" d="M 262.859375 431.175781 C 258.59375 426.914062 249.542969 429.054688 242.640625 435.957031 C 235.734375 442.859375 233.597656 451.914062 237.859375 456.179688 C 242.125 460.445312 251.175781 458.304688 258.078125 451.398438 C 264.984375 444.496094 267.121094 435.441406 262.859375 431.175781 Z M 262.859375 431.175781 "/>
<path style=" stroke:none;fill-rule:nonzero;fill:rgb(90.196078%,90.196078%,90.196078%);fill-opacity:1;" d="M 106.640625 535.195312 L 124.800781 565.257812 L 230.628906 558.992188 L 202.449219 522.667969 Z M 106.640625 535.195312 "/>
<path style=" stroke:none;fill-rule:nonzero;fill:rgb(90.196078%,90.196078%,90.196078%);fill-opacity:1;" d="M 138.261719 675.796875 C 137.648438 675.796875 137.109375 675.339844 137.023438 674.714844 L 105.402344 443.726562 C 105.308594 443.039062 105.785156 442.40625 106.472656 442.3125 C 107.15625 442.214844 107.789062 442.699219 107.882812 443.382812 L 139.503906 674.375 C 139.597656 675.058594 139.121094 675.691406 138.433594 675.785156 C 138.375 675.792969 138.320312 675.796875 138.261719 675.796875 Z M 138.261719 675.796875 "/>
<path style=" stroke:none;fill-rule:nonzero;fill:rgb(90.196078%,90.196078%,90.196078%);fill-opacity:1;" d="M 106.640625 676.089844 C 105.949219 676.089844 105.390625 675.527344 105.390625 674.835938 L 105.390625 443.597656 C 105.390625 442.90625 105.949219 442.347656 106.640625 442.347656 C 107.332031 442.347656 107.894531 442.90625 107.894531 443.597656 L 107.894531 674.835938 C 107.894531 675.527344 107.332031 676.089844 106.640625 676.089844 Z M 106.640625 676.089844 "/>
<path style=" stroke:none;fill-rule:nonzero;fill:rgb(90.196078%,90.196078%,90.196078%);fill-opacity:1;" d="M 265.382812 675.171875 C 264.851562 675.171875 264.355469 674.828125 264.1875 674.292969 L 189.359375 436.414062 C 189.148438 435.753906 189.515625 435.050781 190.175781 434.84375 C 190.835938 434.636719 191.539062 435.003906 191.746094 435.664062 L 266.578125 673.542969 C 266.785156 674.199219 266.417969 674.90625 265.757812 675.113281 C 265.632812 675.152344 265.507812 675.171875 265.382812 675.171875 Z M 265.382812 675.171875 "/>
<path style=" stroke:none;fill-rule:nonzero;fill:rgb(90.196078%,90.196078%,90.196078%);fill-opacity:1;" d="M 242.527344 675.464844 C 241.964844 675.464844 241.457031 675.085938 241.3125 674.519531 L 189.339844 464.574219 C 189.167969 463.90625 189.574219 463.222656 190.242188 463.050781 C 190.914062 462.882812 191.59375 463.289062 191.765625 463.957031 L 243.742188 673.902344 C 243.910156 674.574219 243.503906 675.253906 242.835938 675.425781 C 242.730469 675.453125 242.628906 675.464844 242.527344 675.464844 Z M 242.527344 675.464844 "/>
<path style=" stroke:none;fill-rule:nonzero;fill:rgb(90.196078%,90.196078%,90.196078%);fill-opacity:1;" d="M 106.640625 447.28125 L 193.371094 445.949219 L 209.339844 537.074219 L 107.894531 537.074219 Z M 106.640625 447.28125 "/>
<path style=" stroke:none;fill-rule:nonzero;fill:rgb(100%,71.372549%,71.372549%);fill-opacity:1;" d="M 239.921875 581.277344 L 218.066406 619.761719 L 243.441406 625.351562 L 254.023438 597.976562 Z M 239.921875 581.277344 "/>
<path style=" stroke:none;fill-rule:nonzero;fill:rgb(18.431373%,18.039216%,25.490196%);fill-opacity:1;" d="M 225.914062 612.496094 C 225.914062 612.496094 225.066406 606.21875 220.074219 608.210938 C 215.078125 610.203125 200.667969 617.605469 200.667969 617.605469 C 200.667969 617.605469 238.253906 678.6875 245.386719 675.839844 C 252.519531 672.996094 243.980469 655.730469 243.980469 655.730469 L 245.867188 625.210938 Z M 225.914062 612.496094 "/>
<path style=" stroke:none;fill-rule:nonzero;fill:rgb(18.431373%,18.039216%,25.490196%);fill-opacity:1;" d="M 143.257812 506.59375 C 143.257812 506.59375 135.460938 542.472656 159.375 554.953125 C 183.292969 567.433594 264.917969 536.753906 264.917969 536.753906 L 227.484375 592.851562 L 253.480469 603.3125 C 253.480469 603.3125 312.746094 525.316406 308.589844 512.835938 C 304.429688 500.355469 276.355469 499.316406 276.355469 499.316406 L 212.925781 502.4375 L 196.289062 497.234375 Z M 143.257812 506.59375 "/>
<path style=" stroke:none;fill-rule:nonzero;fill:rgb(100%,71.372549%,71.372549%);fill-opacity:1;" d="M 207.585938 598.355469 L 173.226562 626.25 L 194.828125 640.691406 L 214.644531 619.042969 Z M 207.585938 598.355469 "/>
<path style=" stroke:none;fill-rule:nonzero;fill:rgb(18.431373%,18.039216%,25.490196%);fill-opacity:1;" d="M 183.179688 622.339844 C 183.179688 622.339844 184.671875 616.183594 179.296875 616.222656 C 173.921875 616.261719 157.804688 617.910156 157.804688 617.910156 C 157.804688 617.910156 170.59375 688.484375 178.273438 688.429688 C 185.949219 688.375 184.28125 669.183594 184.28125 669.183594 L 197.140625 641.441406 Z M 183.179688 622.339844 "/>
<path style=" stroke:none;fill-rule:nonzero;fill:rgb(18.431373%,18.039216%,25.490196%);fill-opacity:1;" d="M 144.71875 493.617188 C 144.71875 493.617188 124.402344 524.199219 142.136719 544.527344 C 159.875 564.851562 247.066406 565.984375 247.066406 565.984375 L 191.789062 604.609375 L 212.195312 623.816406 C 212.195312 623.816406 295.78125 572.734375 296.445312 559.597656 C 297.113281 546.460938 271.339844 535.273438 271.339844 535.273438 L 211.125 515.097656 L 197.519531 504.199219 Z M 144.71875 493.617188 "/>
<path style=" stroke:none;fill-rule:nonzero;fill:rgb(18.431373%,18.039216%,25.490196%);fill-opacity:1;" d="M 196.914062 422.785156 C 196.914062 422.785156 177.160156 415.507812 167.800781 415.507812 C 166.90625 415.507812 166.023438 415.609375 165.140625 415.796875 C 159.148438 417.066406 153.636719 422.214844 150.996094 425.023438 C 149.96875 426.125 149.375 426.863281 149.375 426.863281 C 149.375 426.863281 149.4375 426.144531 149.5625 424.886719 C 150.175781 418.273438 152.441406 396.570312 156.507812 382.675781 C 157.964844 377.714844 159.636719 373.75 161.5625 371.828125 C 166.042969 367.335938 168.113281 361.949219 169.070312 357.933594 C 169.878906 354.492188 169.878906 352.070312 169.878906 352.070312 L 162.300781 348.804688 L 160.894531 339.632812 C 160.648438 340.710938 159.492188 342.824219 155.613281 346.867188 C 155.28125 347.210938 154.917969 347.503906 154.53125 347.753906 C 148.9375 351.269531 137.53125 345.152344 131.386719 341.304688 C 133.945312 332.414062 138.582031 324.28125 147.003906 322.949219 C 166.761719 319.832031 166.761719 308.390625 179.238281 320.871094 C 180.269531 321.898438 181.308594 322.886719 182.347656 323.84375 C 186.339844 331.476562 187.796875 341.710938 188.316406 348.824219 C 188.691406 353.804688 188.597656 357.269531 188.597656 357.269531 C 188.597656 357.269531 193.796875 388.46875 202.113281 394.707031 C 210.433594 400.945312 196.914062 422.785156 196.914062 422.785156 Z M 196.914062 422.785156 "/>
<path style=" stroke:none;fill-rule:nonzero;fill:rgb(100%,71.372549%,71.372549%);fill-opacity:1;" d="M 158.441406 372.867188 L 144.390625 393.480469 L 176.117188 401.988281 L 176.117188 372.867188 Z M 158.441406 372.867188 "/>
<use xlink:href="#surface8" mask="url(#mask1)"/>
<path style=" stroke:none;fill-rule:nonzero;fill:rgb(90.196078%,90.196078%,90.196078%);fill-opacity:1;" d="M 178.09375 392.71875 L 147.9375 380.242188 C 147.9375 380.242188 107.386719 397.921875 110.503906 432.238281 C 113.625 466.558594 142.738281 525.835938 142.738281 525.835938 L 200.96875 500.875 L 194.730469 434.320312 Z M 178.09375 392.71875 "/>
<path style=" stroke:none;fill-rule:nonzero;fill:rgb(100%,71.372549%,71.372549%);fill-opacity:1;" d="M 191.765625 355.460938 C 191.765625 370.15625 179.855469 382.070312 165.164062 382.070312 C 150.46875 382.070312 138.558594 370.15625 138.558594 355.460938 C 138.558594 340.769531 150.46875 328.855469 165.164062 328.855469 C 179.855469 328.855469 191.765625 340.769531 191.765625 355.460938 Z M 191.765625 355.460938 "/>
<path style=" stroke:none;fill-rule:nonzero;fill:rgb(18.431373%,18.039216%,25.490196%);fill-opacity:1;" d="M 201.074219 345.828125 C 195.875 351.027344 191.714844 356.230469 191.714844 356.230469 L 189.636719 347.910156 C 189.636719 347.910156 189.160156 348.261719 188.316406 348.824219 C 185.019531 351.070312 176.171875 356.71875 169.070312 357.933594 C 165.90625 358.476562 163.101562 358.132812 161.269531 356.230469 C 157.390625 352.183594 156.238281 350.070312 155.988281 348.992188 L 154.585938 358.164062 L 147.003906 361.429688 C 147.003906 361.429688 147.003906 372.847656 155.324219 381.1875 C 155.726562 381.59375 156.125 382.09375 156.507812 382.675781 C 160.480469 388.664062 163.328125 403.328125 165.136719 415.796875 C 166.738281 426.882812 167.507812 436.222656 167.507812 436.222656 C 167.507812 436.222656 159.636719 426.363281 150.996094 425.023438 C 150.519531 424.949219 150.039062 424.898438 149.5625 424.886719 C 149.40625 424.867188 149.238281 424.867188 149.082031 424.867188 C 139.726562 424.867188 119.96875 432.144531 119.96875 432.144531 C 119.96875 432.144531 106.453125 410.304688 114.769531 404.066406 C 123.089844 397.828125 128.289062 366.628906 128.289062 366.628906 C 128.289062 366.628906 127.945312 353.273438 131.386719 341.304688 C 133.945312 332.414062 138.582031 324.28125 147.003906 322.949219 C 166.761719 319.832031 166.761719 308.390625 179.238281 320.871094 C 180.269531 321.898438 181.308594 322.886719 182.347656 323.84375 C 193.972656 334.535156 205.847656 341.054688 201.074219 345.828125 Z M 201.074219 345.828125 "/>
<path style=" stroke:none;fill-rule:nonzero;fill:rgb(24.705882%,23.921569%,33.72549%);fill-opacity:1;" d="M 74.511719 485.429688 L 84.394531 485.429688 L 84.394531 680.589844 L 74.511719 680.589844 Z M 74.511719 485.429688 "/>
<path style=" stroke:none;fill-rule:nonzero;fill:rgb(24.705882%,23.921569%,33.72549%);fill-opacity:1;" d="M 314.105469 485.429688 L 323.988281 485.429688 L 323.988281 680.589844 L 314.105469 680.589844 Z M 314.105469 485.429688 "/>
<path style=" stroke:none;fill-rule:nonzero;fill:rgb(42.352941%,38.823529%,100%);fill-opacity:1;" d="M 195.546875 402.671875 L 261 402.671875 L 261 468.136719 L 195.546875 468.136719 Z M 195.546875 402.671875 "/>
<path style=" stroke:none;fill-rule:nonzero;fill:rgb(100%,71.372549%,71.372549%);fill-opacity:1;" d="M 157.816406 472.277344 L 184.429688 455.351562 L 195.25 461.878906 L 157.816406 504.894531 Z M 157.816406 472.277344 "/>
<path style=" stroke:none;fill-rule:nonzero;fill:rgb(90.196078%,90.196078%,90.196078%);fill-opacity:1;" d="M 121.421875 406.761719 C 121.421875 406.761719 103.746094 410.917969 112.0625 434.839844 C 120.382812 458.757812 147.417969 508.675781 155.734375 505.554688 C 164.054688 502.4375 165.09375 471.238281 165.09375 471.238281 C 165.09375 471.238281 164.054688 472.277344 159.894531 468.117188 C 155.734375 463.957031 155.734375 465.855469 155.734375 461.265625 C 155.734375 456.679688 152.335938 453.273438 152.335938 453.273438 L 148.457031 445.238281 C 148.457031 445.238281 148.457031 407.800781 132.859375 405.71875 C 117.261719 403.640625 121.421875 406.761719 121.421875 406.761719 Z M 121.421875 406.761719 "/>
<path style=" stroke:none;fill-rule:nonzero;fill:rgb(100%,71.372549%,71.372549%);fill-opacity:1;" d="M 208.789062 440.535156 C 204.523438 436.273438 195.472656 438.414062 188.570312 445.316406 C 181.664062 452.222656 179.527344 461.273438 183.789062 465.539062 C 188.054688 469.804688 197.105469 467.664062 204.007812 460.757812 C 210.914062 453.855469 213.050781 444.800781 208.789062 440.535156 Z M 208.789062 440.535156 "/>
<path style=" stroke:none;fill-rule:nonzero;fill:rgb(24.705882%,23.921569%,33.72549%);fill-opacity:1;" d="M 44.871094 478.019531 L 343.746094 478.019531 L 343.746094 500.25 L 44.871094 500.25 Z M 44.871094 478.019531 "/>
<path style=" stroke:none;fill-rule:nonzero;fill:rgb(24.705882%,23.921569%,33.72549%);fill-opacity:1;" d="M 603.261719 300.152344 L 647.402344 300.152344 C 650.898438 300.152344 653.738281 302.988281 653.738281 306.488281 L 653.738281 324.695312 C 653.738281 328.195312 650.898438 331.03125 647.402344 331.03125 L 603.261719 331.03125 C 599.761719 331.03125 596.925781 328.195312 596.925781 324.695312 L 596.925781 306.488281 C 596.925781 302.988281 599.761719 300.152344 603.261719 300.152344 Z M 603.261719 300.152344 "/>
<path style=" stroke:none;fill-rule:nonzero;fill:rgb(42.352941%,38.823529%,100%);fill-opacity:1;" d="M 695.886719 318.359375 L 740.027344 318.359375 C 743.527344 318.359375 746.363281 321.195312 746.363281 324.695312 C 746.363281 328.195312 743.527344 331.03125 740.027344 331.03125 L 695.886719 331.03125 C 692.390625 331.03125 689.550781 328.195312 689.550781 324.695312 C 689.550781 321.195312 692.390625 318.359375 695.886719 318.359375 Z M 695.886719 318.359375 "/>
</g>
</svg>
